<svg xmlns="http://www.w3.org/2000/svg" width="32" height="32">
    <path style="stroke:none;fill-rule:nonzero;fill:#fff;fill-opacity:1" d="M16 10.668A5.331 5.331 0 0 1 21.332 16 5.331 5.331 0 0 1 16 21.332 5.331 5.331 0 0 1 10.668 16 5.331 5.331 0 0 1 16 10.668m0 2.664a2.669 2.669 0 0 0 0 5.336 2.669 2.669 0 0 0 0-5.336m-2.668 16a.669.669 0 0 1-.664-.559l-.496-3.535c-.84-.332-1.559-.785-2.25-1.316l-3.32 1.344a.671.671 0 0 1-.817-.293l-2.664-4.614a.652.652 0 0 1 .16-.851l2.813-2.215L6 16l.094-1.332-2.813-2.176a.652.652 0 0 1-.16-.851l2.664-4.614a.658.658 0 0 1 .817-.293l3.32 1.332c.691-.52 1.41-.972 2.25-1.304l.496-3.535a.669.669 0 0 1 .664-.559h5.336c.332 0 .613.238.664.559l.496 3.535c.84.332 1.559.785 2.25 1.304l3.32-1.332a.658.658 0 0 1 .817.293l2.664 4.614a.652.652 0 0 1-.16.851l-2.813 2.176L26 16l-.094 1.332 2.813 2.176c.254.199.336.558.16.851l-2.664 4.614a.658.658 0 0 1-.817.293l-3.32-1.332c-.691.52-1.41.972-2.25 1.304l-.496 3.535a.669.669 0 0 1-.664.559h-5.336m1.668-24-.492 3.48a7.34 7.34 0 0 0-4.043 2.376L7.254 9.8l-1 1.734 2.812 2.067a7.418 7.418 0 0 0 0 4.796L6.238 20.48l1 1.735 3.242-1.387a7.265 7.265 0 0 0 4.012 2.344l.496 3.496h2.024l.496-3.48a7.38 7.38 0 0 0 4.012-2.36l3.242 1.387 1-1.735-2.828-2.066a7.465 7.465 0 0 0 0-4.812l2.812-2.067-1-1.734-3.21 1.386a7.228 7.228 0 0 0-4.044-2.359L17 5.332Zm0 0"/>
</svg>
