<svg xmlns="http://www.w3.org/2000/svg" width="32" height="32">
    <path style="stroke:none;fill-rule:nonzero;fill:#fff;fill-opacity:1" d="M15.574 9.266 5.332 18.758V29c0 .55.398 1 .89 1l6.227-.02c.489 0 .883-.449.883-1V23c0-.55.398-1 .89-1h3.555c.493 0 .887.45.887 1v5.977c0 .265.094.523.262.71.164.188.39.293.629.293l6.222.02c.493 0 .891-.45.891-1V18.75L16.426 9.266a.626.626 0 0 0-.852 0Zm16.18 6.453-4.645-4.309V2.754c0-.414-.297-.75-.664-.75h-3.113c-.367 0-.664.336-.664.75v4.539l-4.977-4.606c-.984-.91-2.402-.91-3.386 0L.242 15.72c-.285.261-.324.734-.09 1.054l1.418 1.938c.11.152.274.25.45.27a.623.623 0 0 0 .488-.169L15.574 6.704a.626.626 0 0 1 .852 0l13.07 12.11c.281.265.703.218.938-.102l1.418-1.938a.84.84 0 0 0 .148-.55.768.768 0 0 0-.246-.504Zm0 0"/>
</svg>
