<svg xmlns="http://www.w3.org/2000/svg" width="32" height="32">
    <path style="stroke:none;fill-rule:evenodd;fill:#fff;fill-opacity:1" d="M15.012 2.742c-2.215.371-4 1.676-4.98 3.637-.481.96-.669 1.8-.669 2.953 0 .598.024.953.094 1.281.293 1.38.863 2.434 1.848 3.414.992.989 2.039 1.555 3.414 1.848.629.133 1.933.133 2.562 0 1.29-.273 2.364-.828 3.285-1.703a6.34 6.34 0 0 0 1.41-1.934c1.06-2.16.887-4.593-.472-6.664-.332-.504-1.274-1.437-1.797-1.781a6.888 6.888 0 0 0-2.398-.996c-.57-.117-1.75-.145-2.297-.055m1.777 2.676c2.16.445 3.566 2.559 3.125 4.703-.441 2.164-2.559 3.57-4.703 3.125a4.004 4.004 0 0 1-3.125-3.125c-.57-2.777 1.922-5.273 4.703-4.703M9.68 18.742c-2.5.406-4.546 2.117-5.324 4.461-.293.875-.316 1.067-.34 3.074-.027 2.16-.015 2.262.383 2.657.247.25.582.39.934.39.352.004.688-.14.938-.39.375-.375.398-.504.398-2.36 0-1.265.016-1.707.082-2.031a4.008 4.008 0 0 1 3.129-3.125c.36-.074 1.113-.086 6.121-.086 6.25 0 6.117-.004 6.883.316a4.164 4.164 0 0 1 2.137 2.137c.273.652.312 1.016.312 2.79 0 1.855.023 1.984.398 2.359.25.25.586.394.938.39.352 0 .687-.14.934-.39.398-.395.41-.497.382-2.657-.02-1.515-.039-1.953-.113-2.277-.312-1.367-.871-2.387-1.844-3.363-.965-.969-1.949-1.508-3.359-1.844-.371-.086-.863-.094-6.48-.105-4.758-.012-6.176.003-6.508.054"/>
</svg>
